<?xml version="1.0" encoding="utf-8"?>
<!-- Generator: Adobe Illustrator 24.3.0, SVG Export Plug-In . SVG Version: 6.00 Build 0)  -->
<svg version="1.1" id="Layer_1" xmlns="http://www.w3.org/2000/svg" xmlns:xlink="http://www.w3.org/1999/xlink" x="0px" y="0px"
	 viewBox="0 0 512 512" style="enable-background:new 0 0 512 512;" xml:space="preserve">
<style type="text/css">
	.st0{fill:#07f;}
</style>
<path class="st0" d="M330.7,352l77.7-192h-51.5l-53.2,124.1L265.9,160h-39.6l-40.6,124.1l-28.6-56.5L131.2,307l26.3,45h50.7
	l36.7-111.3l35,111.3H330.7z"/>
<path class="st0" d="M48.8,286.1h31.7c8.6,0.1,17.3-1,25.6-3.2l8.2-25.2l22.9-70.4c-1.8-2.8-3.8-5.4-6-7.8
	c-11.7-13-28.9-19.5-51.5-19.5H0v192h48.8V286.1z M90.7,204.2c4.6,4.6,6.9,10.8,6.9,18.5s-2,13.9-6,18.5c-4.4,5.1-12.6,7.6-24.4,7.6
	H48.8v-51.6h18.4C78.3,197.2,86.1,199.6,90.7,204.2z M376.9,317.6l14.8-37.2h42.7l-20.3-56.5l25.3-63.8L512,352h-53.5l-12.4-34.4
	H376.9z"/>
</svg>
