<?xml version="1.0" encoding="utf-8"?>
<!-- Generator: Adobe Illustrator 24.3.0, SVG Export Plug-In . SVG Version: 6.00 Build 0)  -->
<svg version="1.1" id="Layer_1" xmlns="http://www.w3.org/2000/svg" xmlns:xlink="http://www.w3.org/1999/xlink" x="0px" y="0px"
	 viewBox="0 0 512 512" style="enable-background:new 0 0 512 512;" xml:space="preserve">
<style type="text/css">
	.st0{fill:none;stroke:#60A9FF;stroke-width:32;stroke-linecap:round;stroke-linejoin:round;}
</style>
<g>
	<path class="st0" d="M434.8,137.6L285.4,69.5c-16.2-7.4-42.7-7.4-58.9,0L77.3,137.6c-17.6,8-17.6,21.1,0,29.1l148,67.5
		c16.9,7.7,44.7,7.7,61.6,0l148-67.5C452.4,158.7,452.4,145.6,434.8,137.6L434.8,137.6z M160,308.5l-82.7,37.1
		c-17.6,8-17.6,21.1,0,29.1l148,67.5c16.9,7.7,44.7,7.7,61.6,0l148-67.5c17.6-8,17.6-21.1,0-29.1l-79.9-38.5"/>
	<path class="st0" d="M160,204.5l-82.8,37.2c-17.6,8-17.6,21.1,0,29.1l148,67.5c16.9,7.7,44.7,7.7,61.6,0l148-67.5
		c17.7-8,17.7-21.1,0.1-29.1L352,204.5"/>
</g>
</svg>
