<?xml version="1.0" encoding="utf-8"?>
<!-- Generator: Adobe Illustrator 24.3.0, SVG Export Plug-In . SVG Version: 6.00 Build 0)  -->
<svg version="1.1" id="Layer_1" xmlns="http://www.w3.org/2000/svg" xmlns:xlink="http://www.w3.org/1999/xlink" x="0px" y="0px"
	 viewBox="0 0 512 512" style="enable-background:new 0 0 512 512;" xml:space="preserve">
<style type="text/css">
	.st0{fill:none;stroke:#07f;stroke-width:32;stroke-linecap:round;stroke-linejoin:round;}
</style>
<g>
	<path class="st0" d="M461.8,53.8c-0.3-1.7-1.6-3-3.3-3.4c-54.4-13.3-180,34.1-248.1,102.2c-12.1,12-23.2,25.1-33.1,39.1
		c-21-1.9-42-0.3-59.9,7.5c-50.5,22.2-65.2,80.2-69.3,105.1c-0.8,4.9,2.5,9.5,7.4,10.3c0.8,0.1,1.6,0.2,2.4,0.1l81.1-8.9
		c0.1,6.1,0.4,12.2,1.1,18.3c0.4,4.2,2.3,8.1,5.3,11.1l31.4,31.4c3,3,6.9,4.9,11.1,5.3c6,0.7,12.1,1,18.2,1.1l-8.9,81
		c-0.5,4.9,3.1,9.4,8,9.9c0.8,0.1,1.6,0.1,2.3-0.1c24.9-4,83-18.7,105.1-69.2c7.8-17.9,9.4-38.8,7.6-59.7
		c14-9.9,27.1-20.9,39.2-33.1C427.8,233.8,474.9,110.9,461.8,53.8z M298.7,213.7c-16.7-16.7-16.7-43.7,0-60.4s43.7-16.7,60.4,0
		s16.7,43.7,0,60.4l0,0C342.4,230.3,315.4,230.4,298.7,213.7L298.7,213.7z"/>
	<path class="st0" d="M109.6,352c-10,1.2-19.2,5.7-26.3,12.8C65.7,382.5,64,448,64,448s65.5-1.7,83.1-19.3
		c7.1-7.1,11.7-16.4,12.9-26.4"/>
</g>
</svg>
