<svg id="Layer_1" data-name="Layer 1" xmlns="http://www.w3.org/2000/svg" viewBox="0 0 680.76 183.5"><defs><style>.cls-1{fill:#fff;}</style></defs><polygon class="cls-1" points="148.3 0 0 0 0 183.5 46.44 183.5 46.44 45.69 148.3 45.69 148.3 0"/><polygon class="cls-1" points="208.22 0 208.22 183.5 59.17 183.5 59.17 87.63 107.1 87.63 107.1 137.07 161.03 137.07 161.03 0 208.22 0"/><path class="cls-1" d="M786.93,672v15.39H750.8v11.84H781v14.37H750.8v11.84h36.13v15.38H734.21V672Z" transform="translate(-354.71 -614.35)"/><path class="cls-1" d="M887.83,740.85h-16.7l-34.81-42.1v42.1h-16.7V672h16.7l34.81,42V672h16.7Z" transform="translate(-354.71 -614.35)"/><path class="cls-1" d="M939.13,740.85H922.54V672h16.59Z" transform="translate(-354.71 -614.35)"/><path class="cls-1" d="M666.4,740.36l-16.32-.1.39-68.41,51.83.3-.09,15.29-35.51-.2Z" transform="translate(-354.71 -614.35)"/><path class="cls-1" d="M1019.16,671.85l16.32.1-.39,68.41-51.83-.3.09-15.29,35.51.2Z" transform="translate(-354.71 -614.35)"/><path class="cls-1" d="M990,671.85l-16.31.1.38,68.41,51.83-.3-.09-15.29-35.51.2Z" transform="translate(-354.71 -614.35)"/></svg>