<?xml version="1.0" encoding="utf-8"?>
<!-- Generator: Adobe Illustrator 24.3.0, SVG Export Plug-In . SVG Version: 6.00 Build 0)  -->
<svg version="1.1" id="Layer_1" xmlns="http://www.w3.org/2000/svg" xmlns:xlink="http://www.w3.org/1999/xlink" x="0px" y="0px"
	 viewBox="0 0 512 512" style="enable-background:new 0 0 512 512;" xml:space="preserve">
<path d="M362.6,42.6c58.9,0.2,106.5,47.9,106.6,106.6v213.4c-0.2,58.9-47.9,106.5-106.6,106.6H149.4C90.5,469,42.9,421.4,42.7,362.6
	V149.4C43,90.5,90.6,42.9,149.4,42.7h213.3 M362.6,0H149.4C67.2,0,0,67.2,0,149.4v213.4C0,444.8,67.2,512,149.4,512h213.4
	c82.2,0,149.4-67.2,149.4-149.4V149.4C512,67.2,444.8,0,362.6,0z"/>
<path d="M394.6,149.4c-17.7,0-32-14.3-32-32s14.3-32,32-32s32,14.3,32,32c0,17.6-14.2,32-31.9,32
	C394.7,149.4,394.7,149.4,394.6,149.4z"/>
<path d="M256,170.6c47.1,0,85.4,38.2,85.4,85.4s-38.2,85.4-85.4,85.4s-85.4-38.2-85.4-85.4C170.7,208.9,208.9,170.7,256,170.6
	 M256,128c-70.7,0-128,57.3-128,128s57.3,128,128,128s128-57.3,128-128S326.7,128,256,128z"/>
</svg>
