<?xml version="1.0" encoding="utf-8"?>
<!-- Generator: Adobe Illustrator 24.3.0, SVG Export Plug-In . SVG Version: 6.00 Build 0)  -->
<svg version="1.1"
	 id="Layer_1" mapsvg:geoViewBox="103.618748 1.470961 104.084977 1.179887" xmlns:dc="http://purl.org/dc/elements/1.1/" xmlns:mapsvg="http://mapsvg.com" xmlns:rdf="http://www.w3.org/1999/02/22-rdf-syntax-ns#" xmlns:svg="http://www.w3.org/2000/svg"
	 xmlns="http://www.w3.org/2000/svg" xmlns:xlink="http://www.w3.org/1999/xlink" x="0px" y="0px" viewBox="0 0 800.5 496.7"
	 style="enable-background:new 0 0 800.5 496.7;" xml:space="preserve">
<style type="text/css">
	.st0{fill:#242424;stroke:#B9B9B9;stroke-miterlimit:10;}
</style>
<path id="SG-01" class="st0" d="M431.1,77.5l1.2,0.4l1.9,0.5l1.4,1.6l1.9,1.3l1.1,1.6l0.8,1.4l0.1,1.3l1,1.6l2,2l1.3,1.2l1.4,0.7
	l1.3,1l1.7,0.5l0.9,0.1l0.3,0.8l0.9,0.4l1.1,0.1l0.7-1.3l1.4-1.3h1l2,0.1l1.3,0.3l2.3,1.5l1.6,1l1.6,0.6l1.6,0.5l1.9,0.5l2.8,0
	l2,0.4l1.3,0.1l1.1,0.6l0.9,0.8l1,0.9l1.1,0.7l1.6,1.3l-0.3,0.3l-1.6,2.4l-3.5,5.4l-2.9,2.2l-3.1,1.5l-2.5,1.7l-1.5,1.8l-0.4,4.9
	l-0.7,1.1l-0.7,1.6l-0.4,1.8l-0.2,0.8l-2.4,3.8l-2.5,1l-2.4,1.2l-0.1,6.2l-1.3,1.8l-1.6,0.8l-0.1,1.7l-1.7,2.9l-1.9,3.4l-1,3.6
	l-1,4.2l-1.3,5.1l-1.7,4.4l-1.8,3.1l-3.5-0.2l-4.6-0.9l-3.3-0.6l-3.6-0.3l-3.3,1.6l-2.6,4.1l-1.7,4.4l-1.6,6.1l-2.6,4.6l-2.7,4.4
	l-0.1,5.9l2.1,2.3l2,4.3l1,3.9l0.1,3l-1.9,1.9l-5.1,0.3l-3.3,1.4v3.7l4.1,0.1l5.1,0.9l3.7,0.9l0.7,2.9l0.1,4.4l1.9,4.6l2.3,3.9
	l1.7,0.9l4.6,1.4l3.3,1.4l2.6,3.9l4.3,3l0.6,4.9l1.7,2.6l-0.4,1.4l-0.5,1.7l-2.4,1l-1.4,0.9l-1.3,2.3l-3.7,3l-1,3.4l0.4,1.4l1,1.7
	l0.7,1.6l0.7,2.7l-0.5,1.1l0.1,0.8l0.1,1.5l-0.2,1.1l-0.5,1.6l-0.8,1.4l-1.5,1.4l-1.8,1.4l-1.1,0.6l-0.8,0.5l-0.1,0.6l-0.7,1.6
	l-1.2,0.6l-1.7,1.9l-1.6,1.6l-0.3,2l-0.4,3.3l0.4,3l0.5,2.2l0.8,2.7l-0.1,1.8l-0.1,2.2l-2.2,0.6l-1.6,0l-2.4-0.1l-2.6-0.1l-2-0.3
	l-2,0.1l-3.6-0.3l-1,3.4l-0.5,1.1l-0.3,2.4l-0.2,1.5l0.3,3.4l0.6,0.6l1.3,3.2l2,0.2l1.1-2.7l1.7-2.6l1.3-2.4l0.9-1.4l0.3-1.8
	l1.5-0.1l2,0.1l1.4,0.5l1.3,0.8l2.1,0.6l3.3,1.5l3.4,2.2l2.5,2.3l2.4,2.8l1.2,1.7l-0.2,1.9l-17,13.4h-1.9l-1.5-0.5l-2.4-0.7l-2.6-1
	l-0.8-0.6l-0.7-0.3l0.1-1l0.6-0.4v-1l-0.9-0.5l-1.5,0.1l-0.3-0.2l-1.4-0.7l-1.4-0.4l-1.4-0.6l-2.5,2l0.2,1l0,15.5l-1.1,0.9l0.2,1.3
	l1.8,1.9l-0.6,0.4l-0.9-0.8l-1.4-1.7l-1.7-1.8l-1.6-1.6l-1.8-2.1l-1.9-1.8l-1.1,0.1l-0.6,0.6l-0.6,1.3l-1.1,1l1.4,1.6l1.1,1.4l1,1.2
	l0.1,1H390l-2.8-3.2l-1.5-1.2l-1.4-1l-0.8-1.3l-1-1l-0.9-0.7l-1.1-1.2l-3.9-0.2l-9.5-0.1l-0.7,0.5l-1.8,1l-2.1,1.2l-3.7,2.3
	l-1.7,1.2l-1.5,0.2l-1.8,1h-8.1l-0.2-1.2l-0.9-0.1l-0.6-0.5l-1.4-0.1l-0.3,0.6l-0.6-0.1l0-0.6l1.2-0.9l-2.1-1.4l-0.4,1.2l-1.1,1.7
	l-1-0.4l-1.2-1.1l-1-1l0.4-0.7l1.3-1.4l-1.1-0.7l-0.8-0.1l-1.7-0.8l-2.5-2.1l-1.7-3.2l-1-3l0.8-3l2.3-3.2l1.9-1.9l3-2.7l-0.4-3.4
	l-1.5-2.3l-4.6,0.2l-4-0.2l-2.9-1.1l-4.2-0.2l-2.3,1.5l-4.2-1.3l-4.2-3.6l-1.7-3.2l-0.8-5.5l-0.8-4.9l-0.8-3.4l-1.3-3.4l-2.7-1.9
	l-1.5-4l1.3-3l1.9-3.4l0.6-3.4l2.3,1.8l2,1.7l1.5,1.5l1.7-0.2l0.7-3.4l0.5-2l0.7-2.7v-2.7l-0.2-2.7l0.7-2.7l2.4-3.9l2.7-3.9l2.2-2.4
	l1.7-2.2l2.2-0.5l3.2-1.2l2.4-3.2v-2.9l1.2-3.9l-0.5-3.7l1.2-2.4l2.2-1.5l1.7-2.2l-0.5-3.2l-2.4-0.5h-2.9l-3.2-1.9l-3.9-4.1
	l-3.9-3.4l-2.4-2.7l-3.9-2.7l-1-4.1l1.5-4.4l2.9-3.7l2.9-1.7l2.4-3.4l1.2-4.1l5.1-4.4l3.9-2.9l3.2-2.4l2-4.6l2-5.9l2.8-4.5l1.5-5.8
	l0,0l-1.6-2.6l-1.7-2.2l-1-3.4l-0.7-4.4l0.5-5.6v-6.6l-1.5-5.9l-2.9-3.9l-2.4-4.4l-1.2-2.2l1.7-2.2l3.9-0.7l4.4-0.5l3.4-2.7l3.4-4.6
	l2.9-5.9l2.4-6.1l1.5-4.9l1.7-5.6l2.9-3.9l3.9-1.7l6.4,0.7l2.9,1.2l3.2,3.4l2,3.2l3.2,3.7l4.6,0.5l4.1-2.2l5-0.1l0,0l1.5-0.7
	l2.1-0.8l1.4-0.1l1.6,0l-0.5,1.3l-0.4,1l-0.8,1.4l-1.4,2.1l-1.5,1.3l-2.4,2.2l-2.5,1.3l-1.6,0.6l-2.2,1.4l-3.5,0.8l-3.5,1.3
	l-2.8,0.6l-3.1,0.7l-4.3,0.5l-1.5,1.1l-1.8,0.8l-0.5,2.2l-1.9,1.2l-0.7,1.1l0.8,1.7l0.6,1.3l0.1,1.9l0.2,0.9l0.8,0.5l1.1-0.5
	l1.5-1.7l1.2-1.4l1.5-2.2l0.7-2.5l0.5-1.2h2.4l5.6,0.2l5.7-0.5l3.1-1.3l2.1-1.7l0.4-0.2l3.2-1.4l3.5-0.7l1.3-1.6l2.3-0.8l0.9-1.1
	l1.1-1.7l0.8-1.3l1.1-1l0.8-0.7l1.1-1.4l1.5-1.3l0.5-1.6l0.2-2.2l0.6-1.7l0.9-1.2l1.2-1.3l1.2-0.6l0.6-0.3v-1.2l1.1-1.8l1.1-3l1.8-2
	l0.9-0.4l1.7-0.6l0.6-0.3h1.3l0-0.1l0.8-0.6l1.6-0.3l1.2-0.2l1.7,0.2l1.3-0.4L431.1,77.5L431.1,77.5z M477.8,92l-1.1,1l-0.7,0.1
	l-0.8-0.4l-1.6-0.1l-2.5,0.2l-3.3-0.3l-2.8-0.4l-1.7-0.7l-1.6-1l-1.1-0.7l-1.9-0.4l-1.7-0.5l-0.2-0.7l0.7-1.2l1.5-1.1l1.1-1.5
	l1.5-2.3l1.8-1.9l1.6-2.5l1.6-0.1l1.4,0.9l3.1,1.8l2,1.2l2.1,1.4l2.4,1.6l1.5,1.2l0.8,1.4l-0.2,0.9l-0.5,0.9l-0.3,1.7L477.8,92
	L477.8,92z M455,86l-1.6,1.8l-5-0.1l-1.7-1.2l-2.1-1.7l-1.6-1.7l-1-1.2l-0.7-1.2l-1.3-1l-2.1-1.6l-3-2.4l-2-1.2l-1-0.7l0.1-1.8
	l1-1.6l2.4-1.4l2.7-2.2l1.8-1.2l1.4-0.7l4.9-0.2l2.1,1l4.9,2.6l3.9,2.9l4.1,2.8l0.9,0.8l-0.1,1.2l-3.3,4.7l-2.1,2.7L455,86L455,86z"
	/>
<path id="SG-02" class="st0" d="M532.9,110.3l1.3,1.1l1.3,1l0.5,1.2l0.1,1.4l-0.2,0.8L535,116l-1-0.3l-0.5-1l-1-0.8l-1.4-1.4
	l-0.8-0.5l-1.2-0.7l-1.3-0.7h-0.9l-0.7,0.8l-0.4,1l-0.5,0l-0.7-0.4l0.2-1l0.6-0.7l0.1-1l-0.3-1.4l-1.4-1.1l-2.2-1.8l-1.4-0.5l-1-1.1
	l-0.3-1.7l-0.6-1.3l-0.6-0.6l-0.8-1.3l-1.2-0.7l-0.7-0.6l-1.2-0.3l-0.4-1l-0.8-0.8l-1.2-0.7l-1.1-1l-0.4-1l0.1-1l1.1-0.4l0.9,0.1
	l0.9,0.8l1,0.8l1,1.4l0.6,1.5l1,0.5l2.1,0.9l1.1,0.5l1.4,0.7l1,1.1l1.6,1.5l1.5,2l1.3,1.5l1.6,1.5l1.2,1.3l1.7,1.7
	C531.3,109,532.9,110.3,532.9,110.3z M506.2,92.6l0.4,2.2l-0.2,1.7l-0.4,1.6v1.5l0.5,1.3l2.5,1.2l4.2,3.8l5.9,5.7l3.6,2.7l4.9,3.4
	l-1.1,2.7l-5.3,3.2l0.4,2.3l1.3,1.6l2.5-1.8l4.8-2.7l3.2-1.5l3.2-0.4l2.7,1.9l2.5,2.5l2.3,3.6l1.9,4.2l2.3,3.8l2.8,1.1l3.6,1.7
	l3.2,3.1l1.4,1.5l1.8,1.4l1.8,0.1l1.4,1.3l1.3,0.5l0.9,0.8l1.2,0.8l1.5,0.1l1.8,1l1.9-0.1l1.4,0.4l0.6,1.5l-0.2,1.2l1.1,0.6l0.1-0.8
	l0.8-1.6h1h0.9l0.7,1l1.1-0.6l0.8-0.2l1.1,0.6l1.5,0.2h2.3l1.1-0.9l1.7-0.2l1.5-0.4l1.3-0.4l1.3-0.2l1.5,0.5l1.5,1.2l1,0.3l1.7,0.2
	l0.5-1.8v-1.4l0.7-1.6l1.3-0.4l0.5-1l1-0.7l0.5,3l1,2.9l2.3,2.9l3,2.7l2.3,1.3l1.1,3.2l-0.8,3.6l-3,1.5l-1.3,1.5l-2.3,3.8l-3.6,3.6
	l-2.1,2.5l-2.7,2.1l-3.4,2.7l-1.5,0.9l0.6,2.9l1.7,1.9l1.1,4l0.4,4.2l-0.4,4.4l-3.4,1.3l-5.5,1.1l-2.8,1.3l-3.2,2.3l-3.4,3.2
	l-3.2,2.5l-3.4,3l-4.2,1.1h-3l-2.3-2.1l-2.8-1.9l-3.2,0.2l-6.8,0.6l-5.3,0.6l-4-0.9l-3.6-0.8l-3.4-0.4l-1,3l1.6,0.5l2.5,0.2l0,0.7
	l0.4,1.6l1.2,0.2l0.4,2.1l1.5,0.1l0.9,0.8l1.4,1.6l0.2,1.5l0.6,0.5l0,1.2l-1.5,1.9l-2.8,0.8h-4.6l-2.8,1.7l-2.8,2.5l-2.5,0.8
	l-2.1,0.4l-2.3,2.5l1.3,2.9l-1.9,1.5l-2.1,3l1.9,2.1l1.7,1.1v2.9l-0.4,1.9l-1.5,1.5l-5.5-0.2l-5.1,0.6l-5.7,0.8l-5.3,0.8l-3-0.4
	l-1.7-2.3l-1.1-3.6l1.9-3l0.2-3l-3.2-2.1l-1.3-3l-2.3-3.4l-4.6-4.4l-4-3.2l-3.6-4.4l-4-1.5l-2.7-2.5l-2.1-2.5l0.6-3.2l-1-4.2
	l-1.9-2.1l-6.6-0.4l-3.2-1.1l-3-1.1l-3.4-0.8l-2.5-3.2l-1.1-2.3l-0.2-3.8L441,191l-3.4-2.5l-1.9-3.6v-5.7l1.3-4.2l1.9-4.2l0.8-1.4
	l1.8-3.1l1.7-4.4l1.3-5.1l1-4.2l1-3.6l1.9-3.4l1.7-2.9l0.1-1.7l1.6-0.8l1.3-1.8l0.1-6.2l2.4-1.2l2.5-1l2.4-3.8l0.6-2.6l0.7-1.6
	l0.7-1.1l0.4-4.9l1.5-1.8l2.5-1.7l3.1-1.5l2.9-2.2l5.1-7.9l0.3-0.3l1.1-1l0.4-1.8l3-1.5l4.6-1.4l1-1.1l1.8,0.1l0.2-1.3l0.8-0.8
	l1.4-0.3l-0.4-1.7l1-1l0.8-0.8l0.8-0.8l0.3-1.5l0.9-0.9h1l2.7-0.2l0.8-0.8l0.8-0.8l1.2-0.2l1.3,0.6l0.8,0.7l0.1,1.4l-0.6,0.8
	l-0.7,0.6l-0.1,1.1l1.1,0.1l0.3,0.8l0.3,1.2l0.8,0.9L506.2,92.6L506.2,92.6z"/>
<path id="SG-03" class="st0" d="M411.8,35.5h1l1,1l0.4,1.1l0.7,0.8l0.8,0.8l0.8,0.5l0.4,0.3l1,0.8l0.5,1.4l0.3,1.5l0.6,0.8l0.7,1
	l1,0.8l0.6,0.8l0.3,0.8l0.9,0.6l0.8,1.2l0.1,1.8l0.7,0.9l0.5,0.8l0.2,1.1l-0.8,0.7l-1.3-0.4l-0.5-1l-0.6-0.5l-0.5-1l-0.7-0.8
	l-0.9-1.2l-0.8-0.8l-0.8-0.9l-0.8-1l-0.7-0.5l-0.3-1.2l-0.8-0.9l-0.4-0.9l0.2-1.1l0.4-0.6l-0.4-1l-0.7-0.7l-0.5-0.7l0.2-0.7
	l-0.6-0.5l-0.9-0.6l-0.3-1.2l0.1-0.8C413,36.1,411.8,35.5,411.8,35.5z M411.8,35.5h-0.1l-0.2-0.2L411.8,35.5z M346.1,5.8l-1.2,1.3
	l-0.7,1.4l-0.8,1.7l1.2,1.4l1.2-0.6l1.2-0.8l0.7-1.1l1.2-1.7l0.3-0.2l0.8-0.3l0.9,0.2l0.1,0.9l0.1,0.4l0.3,1.2l0.4,0.8l0.9,0.4V11
	l0,0.1l0,0.3l0,0v0.5l-0.6,0.8l-0.9,1.2l-0.9,1.1l0.8,0.8l1.5-0.1l0.7-1.7l1.2-1.8l1.4-0.6l0.9-0.9l0.9-2.1l1.7-2.5l1.1-1.9l1.6-0.2
	l1.5,0.8l4.3,2.5l2.7,2l-0.3,0.9l-0.7,1l-0.9,1.6l-0.4,1.1l-0.7,0.8l-0.4,1l0.1,0.8l0.6,0.7l1,0.6l1.3-0.5l1-1.3l0.6-1.4l0.8-1.1
	l0.5-1l0.5-1.4h2.5l1.2,0.8l1.7,0.8l1.3,0.8l1.3,1.3l2.3,1.4l1.2,1l1.3,0.6l1.9,1.8l1.9,1.3l2.3,1.7l2,0.8l1.4,0.7l1.8,0.6l1.3,1.3
	l0.6,1.3l1.1,1.3l0.8,1.6l-0.2,2.4l0.2,0.1l0.5,1.1l0.9,1.3l0.9,0.8l0.8,0.9l0.8,1l0.3,0.1l0.6,1.1l0.5,0.9l0.5,1.4l0.4,1.8l1,2.5
	l0,0l0.8,0.7l0.8,0.8l0.4,0.8l0.5,1.1l0.1,0l1.2,1l1.1,1.7l0.5,1.7l0.9,0.9l2,2.3l1.3,2l0.2,2l0.5,1l-0.5,2.4l-0.5,0.7l-1.1,0.8
	l-1.2,1l-1.1,0.4l-0.3,0.5l0.4,0.6l0.3,0.6l0.7,0.2l-0.7,0.8l-1,0.2l-1,0.1l-0.8,1l-0.5,2l-0.6,0.9l-0.7,1.5l-1.3,0.3l-1,0.8v1.3
	l-0.2,1.8l-0.4,2.4l-0.8,1.2l-0.5,1.3l-0.9,0.8l-0.6,0.5l0,0.4l-0.8,1l-0.7,0.8l-0.5,0.8l-0.3,1.6l-0.6,1.4l-0.9,1.7l-1.6,0
	l-1.4,0.1l-2.1,0.8l-1.5,0.7l-5,0.1l-4.1,2.2l-4.6-0.5l-3.2-3.7l-2-3.2l-3.2-3.4l-2.9-1.2l-6.4-0.7l-3.9,1.7l-2.9,3.9l-3.2,10.5
	l-2.4,6.1l-2.9,5.9l-3.4,4.6l-3.4,2.7l-4.4,0.5l-3.9,0.7l-1.7,2.2l3.7,6.6l2.9,3.9l1.5,5.9v6.6l-0.5,5.6l0.7,4.4l1,3.4l1.7,2.2
	l1.6,2.6l-1.5,5.8l-2.8,4.5l-2,5.9l-2,4.6l-3.2,2.4l-3.9,2.9l-5.1,4.4l-1.2,4.1l-2.4,3.4l-2.9,1.7l-2.9,3.7l-1.5,4.4l1,4.1l3.9,2.7
	l2.4,2.7l3.9,3.4l3.9,4.1l3.2,1.9h2.9l2.4,0.5l0.5,3.2l-1.7,2.2l-2.2,1.5l-1.2,2.4l0.5,3.7l-1.2,3.9v2.9l-2.4,3.2l-3.2,1.2l-2.2,0.5
	l-1.7,2.2l-2.2,2.4l-2.7,3.9l-2.4,3.9l-0.7,2.7l0.2,2.7v2.7l-0.7,2.7l-0.5,2l-0.7,3.4l-1.7,0.2l-1.5-1.5l-2-1.7l-2.3-1.8l-1-3.4
	l-4.8-0.9l-5.1-2.9l-4.4-2.7l-4.2-3l-2.1-2.3h-5.7l-4.4-2.5l-5.3-4.2l-4.2-4.8l-6.3-4l-4.9-4l-2.1-2.3l-1.9-2.9l-0.6-2.1v-6.1
	l3.8,0.8h4.2l3.2-0.9l3-2.3l2.7-1.9l3.2-0.8l0.6-4.4h4.4l4-0.6l2.1-2.3l-0.6-4.4l-2.3-2.3l-2.7-1.5l-2.9-1.3l-4.2-5.1l-5.5-6.1
	l-4-5.5l-0.8-5.7l-0.6-9.1l-0.6-5.3l-2.3-3.6l-2.9-5.3l-1.3-5.7l-2.5-6.1l-1.7-5.3l-1.9-4.8l-3.6-3.8l-4.2-6.3l-3-6.3l-1.3-8.6
	l-0.9-5.5l2.7-5.5l2.3-3.2l-0.6-7.6v-5.3l0.8-8.6l5.5-5.3l4.4-5.1l2.3-3.6l-0.4-6.1l-1.5-4.8l-0.4-2.9l1.5-0.1l1.1-0.2l0.3,0.5
	l0.1-0.5l0.8-0.7l1-0.7l0.7-0.5l0.4-0.8l0.6-1.4l0.6-0.6l0.8-1l0.6-1.7l0.5-0.9l0.6-0.9l1.3-0.5l2.9-0.2l0.1-1l-0.5-0.7l0.1-1.1
	l0.6-1.3l0.8-1l1.7-1l1.1-0.8l0.7-0.8l1.8-0.8l1.6-0.5l0.1-0.2h0.5l0.5-0.4l0.6-0.5l0.8-0.4l1-0.1l1-0.2l0.9-0.6l0.3-0.2l1.8-0.1
	l2.3-1.4l0-0.1l0.2,0l1.1-0.7l2.1-1.2l3.3-2.4l2.2-2.1l2.2-1.8l2.5-1.2l1.9-1.5l3.7-2.7l1.4-0.5l1.9-1l3-1.9l2.9-2.3l2.5-1.6
	l1.2-0.8l0.8-0.3l0.4-0.6l0.4-0.3l1.6-0.8l1.6-0.6l1.5-0.9l0,0l0,0l0,0l0,0l1.1-1l1.3-1.9l1.6-0.7l2.4-0.1l1.2-0.4l2.6-0.4l1.5-0.5
	h2.1l2.4-0.2l2.4-0.6l3.7-0.1l2.9-0.4l2.8-0.1h2.1l2.8,0.2l1.7,0.4l1.6,1l1.7,0.7l0.3,0.7l0.2,0.3l-0.6,0.2l-1.1,0.4l-1.5,0.5
	L346.1,5.8L346.1,5.8z"/>
<path id="SG-04" class="st0" d="M633.5,131.8l2.2,0.7l1.3-0.1l3.2,1.4l2.5,0.7l2.5,0.8l2.7,0.3l1.2,0.8l1.8,0.3l0.1,0.2l2.3,1.1
	l1.5,1.1l2,1.1l2.5,2.4l2.5,2.2l2.5,3.6l1.5,2.6l0.5,2.5l1.1,2.5l0.8,2.3l0.5,6.5l-0.3,3.8l-0.4,2.9l0.1,0.1l-0.1,10.5l2.6,0.2
	l2.8,1.2l2.5,1.6l-2,5.1l-3.3,7.6l-4.5,10.7l-3.7,8.7l-2.7,6.6l-4.3,9.1l-3.8,9.3l-1.4,3.3l-0.3,1.8l-0.6,2.2l1.4,2.1l2.3,0.6
	l2.1,0.2l2.3-0.4l3.4-0.6l2.3-0.2l1.4-0.4l1.6-0.3l1.7-0.7l2.9-0.7l1.6,0.2l1.8,0.6l2.2,0.7l1.7,0.9l1.3,0.8l1.5,1.1l1.4,0.5l2,0.4
	l1.3,0.8l2.2,0.6l1.9,1.4l0,1.2l0.1,2.8l-0.4,1.9l-0.7,0.9l0,0h0l-1,1l-2.5,0.6l-2.1,0.6l-1.9,0.4l-2.5,0.8l-2.4,1.2l-1.9,1
	l-1.9,0.5l-1.8,0.7l-2.1,0.7l-1.6,0.6l-1.1,0.4l-3.1,0.3l-5.2,0.6l-3.8-0.2l-3.2-1.8l-4-1.9l-6.4-2.3l-6.3,1.4l-3.8,1.3l-1.3-6.4
	l-0.8-1.4l5.7-12.8l-1.2-0.2l-2.3,5.5l-2.1,3.8l-1,3.7l-2.1,0.5l-4.7-0.3l-2.6,0.8l-1,0.5l-1,0.6l-0.6-0.3l-0.2-1.4l-1.2-0.1
	l-0.8,1.6l-1.3-0.4l-4,0.1h-1.4l-0.7,0.7l-1.2-0.6h-0.8l-1.1,0.5l-0.6,0.6h-2.3l-0.7,0.8l-1.2,0.3h-1.1l-1.4,0.7h-2.6l-0.1,0.2
	l-1.7-0.2l-1.3,0.3l-0.6,0.8h-1.3l-1.3,0.7l-1,0.7l-1.3,0.2l-0.2,0.7l-1.5-0.1l-2.1,0.6l-1.3,1.1l-2,1.2l-3.3,0.6l-2.3,0.5l-2.2,0.8
	l-1.5,0.9l-2,0.2l-1.5,0.5l-1.8,0.5l-2.6,0.6l-1.1,0.6l-1.7,1.2l-1.2,0.7l-3.2,0.3l-3.4,0.7l-2.6-0.6l-1.3,2l-1.6-0.8l-0.1,0
	l-1.5-0.3l-1.5,1l-1.8-0.1l-2.2,0.6l-1.2,1.2l-1.5-0.2l-1.2,0.1l-2-0.4l-1.2,0.6l-1.4,0.5l-1.6,0.3l-1.3,1.2l-2.4,0.5l-1.2,0.2h-1.8
	l-1.2,0.4l-1,1l-1-0.1l-1.9-0.2l-0.3,0.7l-1.9,0.4l-1.9,0.2l-1.9,0.6l-1.2,1.5l-1.6,0.3l-1.3,0.6l-0.9,1.2l-2.1,0.1l-1.8,0.6
	l-1.4,0.2l-2.5,0.1l-1.7,0.3l-2.6,0.4l-3.1,1.4l-2.5,0.6l-3,0.9l-2.3,1.6l-1.6,1.8l-2.4,1.6l-3.4,1.5l-1.6,1.1l-1.6,0.8l-1.5,0.9
	l-2.2,0.8l-1.1-0.8l-0.8,0.1l-1.7,0.9l-2.2,2.2l-1,1.3l-1.2,0.5h-0.9l-0.9-0.1l-1.3,0.6l-0.4,1l-1.4,1.3l-1.2,1.3l-2.1,1.9l-1.8-0.4
	h-1.2l-1.2,0.9l-1.2,1.2l-1.3,1.3l-0.7,1.3l-1.3,0.6l-0.5,1.3l-1-0.4l-1.4-1.4l-1-1.7l-1.8-1.3l-1.4-2l-1.1-1.5l-1-1.6l-1.3-2
	l-1-1.1l-0.7-2.4l-1.5-3.3l-1.8-3.2l-0.1-5l0.3-1l1.2-0.2l0.9,0.8l3.5,0.2l1.3-0.4l1-0.3l1.5-0.3h2.9l1.3,0.6l2.6,0.3l1-1.1
	l-0.3-1.3l-0.5-0.7l-1.4-0.8l-1.8-0.2l-1.6-1.6l-1.5-1.6l-0.2-4.1l-1.5-1.4l-2.2,0.1l0.8-1.4l0.5-1.6l0.2-1.1l-0.1-1.5l-0.1-0.8
	l0.5-1.1l-0.7-2.7l-0.7-1.6l-1-1.7l-0.4-1.4l1-3.4l2-1.6l1.7-1.4l1.3-2.3l1.4-0.9l2.4-1l0.9-3l-1.7-2.6l-0.6-4.9l-4.3-3l-2.6-3.9
	l-3.3-1.4L425,238l-1.7-0.9l-2.3-3.9l-1.9-4.6l-0.1-4.4l-0.7-2.9l-3.7-0.9l-5.1-0.9l-4.1-0.1v-3.7l3.3-1.4l5.1-0.3l1.9-1.9l-0.1-3
	l-1-3.9l-2-4.3l-2.1-2.3l0.1-5.9l2.7-4.4l2.6-4.6l1.6-6.1l1.7-4.4l2.6-4.1l3.3-1.6l3.6,0.3l3.3,0.6l4.6,0.9l3.5,0.2L439,171
	l-1.9,4.2l-1.3,4.2v5.7l1.9,3.6l3.4,2.5l2.3,2.9l0.2,3.8l1.1,2.3l2.5,3.2l3.4,0.8l3,1.1l3.2,1.1l6.6,0.4l1.9,2.1l1,4.2l-0.6,3.2
	l2.1,2.5l2.7,2.5l4,1.5l3.6,4.4l4,3.2l4.6,4.4l2.3,3.4l1.3,3l3.2,2.1l-0.2,3l-1.9,3l1.1,3.6l1.7,2.3l3,0.4l5.3-0.8l5.7-0.8l5.1-0.6
	l5.5,0.2l1.5-1.5l0.4-1.9v-2.9l-1.7-1.1l-1.9-2.1l2.1-3l1.9-1.5l-1.3-2.9l2.3-2.5l2.1-0.4l2.5-0.8l2.8-2.5l2.8-1.7h4.6l2.8-0.8
	l1.5-1.9l0-1.2l-0.6-0.5l-0.2-1.5l-1.4-1.6l-0.9-0.8l-1.5-0.1l-0.4-2.1l-1.2-0.2l-0.4-1.6l0-0.7l-2.5-0.2l-1.6-0.5l1-3l3.4,0.4
	l3.6,0.8l4,0.9l5.3-0.6l6.8-0.6l3.2-0.2l2.8,1.9l2.3,2.1h3l4.2-1.1l3.4-3l3.2-2.5l3.4-3.2l3.2-2.3l2.8-1.3l5.5-1.1l3.4-1.3l0.4-4.4
	l-0.4-4.2l-1.1-4l-1.7-1.9l-0.6-2.9l1.5-0.9l3.4-2.7l2.7-2.1l2.1-2.5l3.6-3.6l2.3-3.8l1.3-1.5l3-1.5l0.8-3.6l-1.1-3.2l-2.3-1.3
	l-3-2.7l-2.3-2.9l-1-2.9l-0.5-3l1.7-1.4l1-1.7l0.6-0.5l0.5-0.3l2.2-2.4l1.8-1.5l0.6-1.9l1.7-0.8l0.8-1.2l1.2-0.4l2-0.6l2.8-0.4
	l1.6,0.4l2.7-0.8l2.2,1h1.4l1.9-0.9l1.3-0.3l1.5-0.1L633.5,131.8L633.5,131.8z M574.9,119.9l-0.5,0.2l-0.6-0.1l-0.8-0.4l-1.9-2
	l-2.1-1.9l-0.1-1.1l-1-1.3l0.7-0.2l1,0.8l1,0.2l0.9,0.4l1,0.4l1,0.4l-0.1,0.8l0.2,0.6l0.5,0.4l0.5,0.7l-0.3,0.5v0.6l0.5,0.6
	L574.9,119.9L574.9,119.9z M565.5,109.7l-0.4,0.4l-0.8-0.3l-0.5-0.8l-1-1.1l-1.3-1.1l0.7-0.4l0.3,0.2l1,0.2l0.7,0.4l0.7,0.7l0.4,1.1
	L565.5,109.7L565.5,109.7z M693.7,97.9l-1.6,0.2l-1.2-0.4l-1.3-0.8l-1.6-1.3l-1-0.8l-1.1-1.3l-0.7-1.5l-0.4-1.3l-0.5-1.4l0.6-0.8
	l0.6-0.7l0.7-1l0.9-1.2l0.4-1.2l0.6-1.3l0.5-0.8l0.1-0.8l-0.4-0.4l0.2-0.6l0.4-0.4l0.5,0.3l0.2,1.1l0.2,1.1l0.6,0.5l0.5,0.6l0.3,0.8
	l1.5,0.3l1.5,0.2l1.5,0.6L697,86l0.6,1.4l1,1.1l1.4,1.8l0.7,1.6v1.3l-0.3,1.3l-0.3,1.2l-0.8,0.9l-1.3,0.1l-1.6,0.3l-1.5,0.4
	L693.7,97.9L693.7,97.9z M578.6,89.2l0.7,0.6h11.5l1.6-0.7l1.4-0.7L595,88l7.5,0.1l1.2-0.4h3.5l3.1,0.5l3,0.5l2.3,0.7l2,0.4l1.2,0.4
	l1.6,0.1l1-1.2l1.9,0.3l2,0.4h1.9l1.5-0.6l1-0.4l1,0.1l0.4,1.5l0.3,0.6l1.3-0.2l0.9-0.8l0.6-0.5l2.3-0.3l0.4,1l0.8,0.5l0.8,1l-0.1,1
	l0.3,1.8l0.4,1l-0.1,1.4l0.3,1.4l-0.4,0.9l-0.6,1.6l0.2,2l1.1,0.9l0.6,0.6l0.6,0.3l-0.3,0.7l-1.1-0.3l-1.7-0.5l-2.3,0.3l-1.1,0.7
	l-1.4-0.6l-1.9,0.6l-1.2,0.5l-0.8,0.4h-2l-1-0.5l-1.6-0.4l-0.6,0.6l-0.9,0.3l-1.6-0.3l-1.7-0.4l-1.5,0.4l-1.9,0.1l-0.9,0.5l-1.3,0.8
	l-1.1,0.3l-0.3,0.8l-1.1,0.3l-1.6,0.4l-0.6,1.4l-0.2,1.2l-0.8,0.4l-1,0.5l-0.7,0.9l-0.9,0.9l-1.5,0.3l-0.2-1.1l-1.3-0.1l-0.7,0.3
	l-0.3,0.7l-1.5,0.9l-1.9,0.2l-1.8,0.6l-1.7,0.4l-2.3,0.7l-2.2,0.8l-2.6,0.4l-2.2,0.2l-1.1,0.8l-1.7-0.2l-0.8-1.4l-0.7-1.7l-1.4-2.1
	l-1.4-0.9l-0.7-1.8l-1.1-1.7l-1.3-0.8l-1.7-0.3h-2.7l-1.1-1.2l-0.7-1.4l-0.5-1.3l-0.5-2.1l-2.2-2l-2-0.7l-3.3-0.3l-1.8-1l-2.3-0.7
	l-1.6-0.8l-2.6-2.2l-1.1-1l-1.3-0.7H549l-1.5,0.4l-1.9-0.5h-1.5l-1.8-0.9l-0.2-0.7l-1.2-1.6l-0.8-0.9h-1.3l-0.8,0.9l-1,0.1l-0.9-0.6
	l-0.7-0.5l-0.6-0.7l-0.6-0.9L533,87l-1.2-1.3l-0.2-1.2l-0.6-1.4l-0.2-1.3l-0.4-0.8l0.1-1.4l1.2-0.3l2.3-0.5l1.5-0.9l0.9-0.8l0.6-1.5
	l3.3-0.3l0.7-0.7l0.4-1.3l0.7-0.7h1l2.2,0.6l1.6,1.2l2,0.6l2.7,1.4l3.4,1.3l3.4,1l3.6,0.7l1.9,1l1.2,0.9l2,0.7l0.4,0.8v1.6l1.9,1.7
	l2.3,1l1.5,0.4l3.8,0.5L578.6,89.2L578.6,89.2z M771.5,72.4l3.5,1.3l2,1.7l1.8,1.2l1.7,1.2l2.1,1.6l2,2.3l1.6,0.8l1.9,0.7l1.4,1.2
	l1.3,1.3l1.5,0.8l1.1,0.4l1.1,1.4l0.1,2l1.3,1.6l1.4,1.6l0.5,1.3l1.7,2.4l0.6,1.8l0.1,3.9l-0.8,2.1l-0.9,1.5l-0.1,1.9l-1.1,1.7
	l-0.4,1.4l-0.4,2.7l-0.5,1.1l-0.6,1.5l-0.3,2.2l-0.2,2.8l-0.8,0.9l-0.4,2.5l-0.9,2.6l-0.7,2l-1.1,1.3l-0.6,0.9l-2.9,1l-2,0.9
	l-1.7,0.6l-1-0.6l-2.3-1l-2.1-1l-1.5-0.7l-1.6,0.4l-1.6,0.9l-2.7,0.8l-3.6,1.7l-2.9,1.6l-3,1.8l-2.8,1.3l-0.9,0.5l-3.1,0.8l-2.1,1.1
	l-0.4,1.6l-1.1,0.8l-0.8,0.6l-0.9,0.7l-1.6,1.8l-1.7,1.4l-1.2,0.2l-1.4,0.9l-1.4,0.5l-1.2-0.9l-0.4-1.3l-1-0.8l-1-0.3l-0.6-1.6
	l-1.2-0.5l-0.5-0.8l-0.6-1.4l-1.3-1.6l-1.1-0.9l-0.2-2.2l-1.2-0.4v-1.5l-1.6-1.1l-1.9-2.1l-2-2.5l-1.2-1.7l-1.2-1.7l-1.1-1.1H721
	l-0.9-1l0.2-1l0.1-1.9l-0.9-1.9l-0.8-1.3l-0.7-1.1l-0.8-1.3l-1.8-1.8l-1.5-1l-2.1-0.6l-0.9-2.1l-2.4-0.6l-1.8-0.6l-0.5-1.2l-0.7-1.7
	l-0.8-0.6l-0.7-0.6l1.6-1.1l0.3-0.9l0.5-1.4l0.8-2l1.1-1.8l0.7-1.3l0.8-3.3l-0.7-2.4l-0.8-0.9l-1-1.8l-0.8-2l-0.5-2.5l-0.4-2.1
	l-0.3-2.4l-0.6-3.3l1.1-1.2l1.1-0.2l1.4,1l1.1,0.3l1.4,0.6l1.4,0.2h1.4h1.8l1.4,0.7l1.4-0.2l1.5-0.4l1.1-0.3l1.4-0.6l1.1-1.3
	l1.9-1.8l1.2-0.7l0.8-1v-1.6l0.9-0.9l0.8-0.7l0.5-0.9l0.4-1.2l0.9-0.2l0.9,0.4l0.6,0.9l1,1.2l1.2,0.9l2.8,0.2l1-0.7l1.3,0.3l1.3,1.3
	l1.1,0.2l1.8,0.3l1,1.3l1.2,0.2l1-0.7l1-1.8l0.8-0.8l1.9-1l0.4-1.9l1.8-0.8l2.2,0.3l1.2,0.2l1.1,0.9l1.8,0.6l2.4,0.5l1.9,0.7
	l2.7,0.6l1.9,1L771.5,72.4L771.5,72.4z"/>
<path id="SG-05" class="st0" d="M186.2,484.8v0.8l-0.9-0.1l-1.3,0.2l-0.1,0.6l0.1,0.7l1.1,0.3l1.5,0.6l0.8,1.2l-0.6,0.9l-0.6,0.9
	l-1.4,0.1l-2,0.3l-1.2,0.4l-1.8,0.2l-2.3,0.8l-0.6,0.3l-1.2,1l-1.5,1.1l-1.5,1.4h-0.7l-0.4-1.1l-0.4-1l0.1-2.4v-2l-0.6-0.7l0.4-0.9
	l0.9-0.6l1.1,0.1l1.9-0.3l2-0.3l1.1-0.6l0.9-0.9l0.7-0.9l0.7-1l-0.2-0.7l-0.3-0.6v-1l0.3-1.2l1.2-0.1l1,0.3l1.5,0.4l1,0.7l0.6,0.7
	l-0.6,0.4l-0.1,0.7l0.7,0.6L186.2,484.8L186.2,484.8z M196.2,456.9l-0.6,0.7l-0.7-0.2l-0.2-0.6l-0.3-0.6l-0.7-0.3v-0.8h0.8l0.6,0.1
	l0.4,0.8L196.2,456.9L196.2,456.9z M275,450.7l-1,0.1l-0.1-0.5l-0.7-0.4l-0.8-0.1l-0.3-0.5l0.1-0.5l1,0.1l1,0.3l1.4,0.4l-0.1,0.5
	l-0.2,0.4L275,450.7L275,450.7z M313.5,460.8l-0.2,0.5L312,461l-2-0.4l-1.2-0.8l-0.8-0.6l-2.3-1.1l-2.4-1.3l-1.7-1.4l-0.7-1.2
	l-1-1.8l-0.7-1l-0.4-1.2l-0.5-1.1v-2.2l0.1-1.4l0.8-0.8l0.8,0.6l0.6,0.7l0.8,1.1l0.8,0.7l1.3,1.1l1.5,0.9l1.8,1.5l0.4,1.4l1.4,1.5
	l0.6,0.9l1.7,1.4l1.1,1.6l0.5,1.2l0.8,0.7L313.5,460.8L313.5,460.8z M243.9,447.7l0.6,1.1l1.1-0.1l0.7-0.2l0.6,0.1l0.4,0.8l0.6,0.5
	l0.7,0.9l0.7,1l0.2,1.1l-0.1,1.4l-0.6,0.2l-0.6,0.5l-0.6,0.9l-0.8,1.1l-0.3,1.7l-0.4,0.5l-0.4,0.1l-0.2-0.7l-1.4-0.1l-0.5,0.5
	l-0.7,1l-0.7,0.4l-0.6-0.8l-0.2-0.9l-0.5-1.6l-0.6-2.1l-0.7-1.7l-0.1-1.7l0.5-1.3l0.1-1.5l0.4-1.3l0.6-1.6l0.7-0.9l0.6-0.7l0.1-0.6
	l0.2-0.9l0.4-1l1.8-0.1l0.2,0.5l-0.2,0.4l-1,0.2l-0.4,0.2l-0.2,0.6l-0.3,0.9l0.3,0.5l0.1,1.1l0.2,1L243.9,447.7L243.9,447.7z
	 M182.2,447.3l1.4,0.5l1-0.6l1.1-0.9l1.1-0.6l0.8-0.6l0.7-0.2l0.6,0.6l0.8,0.9v0.5l-0.6,0.5h-0.9l-1,0.3l-0.7,1.3l-0.2,1.4l0.6,1
	l1.1,0.9l1.8,0.2l1.1,0.3l0.8,0.7l1.1,1l-0.5,0.7l-1.8,0.2l-0.3,1.4l-0.7,1.9l-1.7,0.2l-1.7,0.3l-1.3-0.2l-1.3-0.5l-1.5-0.3
	l-2.6,0.1h-5.1l-0.8,0.3l-1.9,0.7l-1.8-0.2l-2.9-0.8l-3.4-0.5l-2.6-0.3l-1.8-0.6l-2.6-0.2l-2.3-0.3l-1.2-0.6l-0.2-1.2l0.8-1.1
	l0.8-0.9l1.9-0.2l1.1-0.4l1-0.7l1.4-1.1l1.1-1.2l1-1.4l1.1-1.1l2-1.3l1.6-1l1.5-0.7l3.7-0.5l1.4-0.3l1.4-0.5l1.8-0.8l1.4-0.2
	l1.6,0.3l0.5,1.1l0.1,0.6l0.3,1.4l1.2,1.4L182.2,447.3L182.2,447.3z M371.7,438.9l-0.4,0.1l-0.6-0.3v-0.5l0.4-0.2l0.2-0.2l0.4-0.3
	l0.2-0.5l0.4-0.6l0.3-0.6l0.6-0.2l0.1,0.6l0.4,0.3l-0.2,0.5l-0.2,0.1l-0.3,0.5l-0.4,0.4l-0.4,0.4L371.7,438.9L371.7,438.9z
	 M368.2,434.9l-0.6,0.1l-0.2-0.6l0.1-0.5l0.4-0.5l0.8,0.1l0.3,0.6l-0.3,0.5L368.2,434.9z M393.5,424l0.8,0.6l0.9-0.1l1,1l0.8,0.5
	l1,0.2l0.9,0.6l0.1,0.6l-0.4,1.2l0.3,2.2l0.4,1.4l0.2,2l0.1,1.7l-0.6,0.5l-0.5-0.3l-0.8-0.7l-0.5-0.6l-0.4-0.6l-0.5-0.7l0.2-0.8
	l-0.2-0.9l-0.8-0.3l-0.9-0.8l-1.6-1.3l-0.9-1.2l-1.4-1.2l-1.1-1.3l-1.1-0.7l-0.9-0.6l-0.1-1.1l0.6-0.7l0.5-0.7l1.2-0.3l0.5,0.5
	l0.5,1l1.2,0.4L393.5,424L393.5,424z M410.1,427.6l-0.6,0.4l-0.9-0.5l-0.6-0.6l-1-0.5l-1.1-1.1l-0.9-1.1l-0.8-0.9l-0.7-0.9l-0.1-1.7
	l-0.1-1l-0.7-0.9l0.2-1.2l0.6-0.3l1,0.1l0.2,0.6l0.9,0.5l0.8,0.8l1.2,1.1l1,1.1l0.6,0.9l1.1,0.4l0.9,0.7l0.5,0.7l-0.2,1.1l-0.5,0.6
	l-0.5,1.1L410.1,427.6L410.1,427.6z M230.4,422.1l-1.2,0.5l-2.2-0.1l-1.6,0.2L224,423l-1.4-1l-0.6-0.6l-1-0.9l-0.3-1.4l0.2-1.1
	l0.1-1.4l-0.3-0.9l0.6-1l1.3-0.1l1.6,0.6l2.1,0.8l1.6,0.7l1.3,0.9l1.8,1.2l1.2,1.2l0.4,0.9l-0.8,1L230.4,422.1z M402.2,410.5
	l-0.6,0.9l-0.8,0.5l-1,0.1l-0.9-0.5l-0.8-0.4l0.3-0.5l0.9-0.1l0.5,0.2l0.7,0.1l0.5-0.1l0.5-0.9l0.6-0.8l0.4-0.9l0.6,0.2v0.5v0.6
	l-0.5,0.4L402.2,410.5L402.2,410.5z M409,410.5l-1.1,0.1l-0.4-0.3l0.1-0.5l0.6-0.3l0.5-0.3l0.5-0.3l0.2-1.1l0.3-0.6l0.7-0.2l0.4,0.8
	l-0.2,0.9l-0.5,0.6l-0.6,0.6L409,410.5L409,410.5z M380.6,411.8l-0.5,0.1l-0.6-0.6l-0.6-0.6l-0.6-0.8l-0.6-0.6l-0.5-0.8l-0.7-1.1
	l-0.3-1.2l0.9,0.7l0.4,0.5l0.6,0.5l0.7,0.6l1,0.9l0.6,0.8l0.5,0.8L380.6,411.8L380.6,411.8z M239.2,412.5l-1.1,0.2l-0.9-1v-1
	l-0.7-0.8l-1-1l-0.6-0.7l-1.2-0.9l-0.3-1.3l0.2-1.7l1-2l1-1.6l2.3-0.7l0.8,0.5l0.5,0.4l0.5,1.5l0.6,1.6l0.4,1.2l0.6,1.5l-0.1,1.5
	l-0.7,1.4l-0.7,1.5L239.2,412.5L239.2,412.5z M216.5,407.7l-2,0.7l-1.7-0.3l-1.6-0.6l-0.8-0.4l-0.9-0.9l0.1-0.9l-0.5-1.2l0.9-1.2
	l1.6-0.6l1.1-1l1.9-0.9l1.9-1l1.1-0.5l1.5-0.5h2.2l1.8,0.4l1.5,0.9l0.8,1.4l0.7,1l-0.3,1.1l-0.7,0.8l-1.1,0.7l-2.1,0.9l-2.9,1.5
	L216.5,407.7L216.5,407.7z M260.7,403.4l0.6,1l1.3-0.2l0.6-0.2l0.4,0.6l0.3,0.5l1.6,0.9l0.4,1l1,0.9l2,1.7l1.7,1.5l1.2,1.4l0.8,1.1
	l-0.5,0.5l-0.1,0.8l1.2,1.2l0.6,0.8l0.8,1.3l0.2,1.1l-1,0.6l-1.6-0.1l-2.1-0.1l-0.4-1.1l-1,0.2l-0.7,0.6l-1.3-0.1l-0.8-1l-0.3-1.2
	l-0.3-1.8l-0.6-1l-0.6-0.8l-2.6-1.8l-0.9-0.7l-0.9-0.4l-1.5-0.4l-1-0.5H256l-0.5,0.9l0.2,0.8l0.8,0.2l1.1,0.7l1.1,0.6l1,0.8l0.9,0.7
	l-0.2,0.7l-0.8,0.3l-0.4,0.8l-1.4,0.3l-0.6,1l-0.8,0.8l-2.1,0.1l-1.9,0.3l-3.1-0.3l-2-0.5l-1.5-0.4l-1.8-0.2l-1.2-0.5l-0.8-1
	l-0.1-1.4l0.6-1.3l0.5-0.9l1-1l0.6-0.6l0.2-0.7l1-0.1l1.1,0.7l1.9,0.8l1.7,0.1l1.4-0.4l0.6-1.6l-1-1h-2.3l-1.6-0.7l-1.9-1.2
	l-0.6-1.4l-0.4-1.9l-0.8-1.9l-0.5-1.1l-0.2-1.4l0.1-2V396l0.7-0.8l0.5-0.9l1.5-0.4l1.1,0.2l2.2,0.4l1.2,0.4l1.8,0.6l0.7,0.8l0.7,1.1
	l0.9,0.7l1.1,1.1l1.4,0.6l1.4,0.8l1,1l0.7,0.9L260.7,403.4L260.7,403.4z M333.3,361.6l2.1,0.5l2.4-0.2l1.3,0.5l1.3,0.2l0.9-0.2
	l0.9-0.5l0.8-0.5l0.5-0.9l0.7-0.4l0.1,0.9l0.9,1.2l2,0.6l2.3,1.6l3.6,1.3l2,1.9l1.9,0.6l2,0.9l2.4,0.3l2.4-0.1l2.2-0.3h1.6l1.6,0.9
	l0.9,0.4l1,0.7l1.7,0.8l1.9,0.2l1.1-0.6l1.3-0.9l1.9-0.2h1.6l1.5,0.3l1.5,0.2l0.6,0.7l0.2,1.6l-0.5,1.1l1,0.6l1.2-0.2l0.4-0.9
	l0.7-0.2l1.3-0.9l1-0.4l1.3-0.5l2.2-0.3l1.3,0.5l1,0.6v1.1l-0.5,0.9l-0.4,1.3l-1.2,1.5l-1.3,1.3l-0.9,1.6l-1.2,1.6l-0.6,1.3l-1.5,2
	l-0.8,0.5l-0.8,0.5l-0.3,1.3l-0.5-0.2v-0.9l-0.1-1l-0.2-0.7l-0.9-0.8l-0.7-0.6l-0.6-0.4l-0.8-0.5h-0.9l-0.3,1.2l0.2,1v1.5v1.1
	l-0.5,1.1l-0.2,1.2l0.9,1.2l0.7,0.7v0.5l-0.6,0.2l-0.5,0.7l-1.1,0.9l-0.6,0.4l-1.3,0.6l-0.8,0.5l-0.5,0.5l-0.7-0.5l-0.8-0.2
	l-0.8,0.5l-1.5,0.3l-1.2,0.4l-1,0.2l-0.9,0.6l-0.5,0.9l-1.4,0.2l-1.5-0.5l-0.7-0.5l-0.9-0.8l-0.3-1.5l-0.5-1.7l-1.1-0.7l-1.1-0.6
	l-0.1-0.9l-0.8-0.4l-1.6-0.9l-1.3-1.2l-0.9-1.3l-1.3-1.1l-0.9-1.4l-0.8-1.7l-0.8-1.2l-1-0.8l0.1,0.5l-1.4-0.6l-0.6-0.2l-0.5-1.2
	l-0.5-0.6l-1-0.7l-2.3-0.1l-0.4,0.3l-0.3,0.5l-1.2-0.2l-0.7-0.5l-1-0.7l-0.9-1l-0.9-1l-1.2-1.6l-1.2-0.6l-1.4-1l-1.2-0.6l-0.2-1.1
	l-1-0.6l-1.5-1.1l-1.1-1.3l-1.3-0.7l-1.8-0.4l-0.6-0.9l-0.5-1.2l-0.4-0.9l-0.8-1.3l-0.5-0.6l0.2-0.8l1-0.2l1-0.2l1.9,0.3l2.1,0.6
	L333.3,361.6L333.3,361.6z M382.8,363.5l0.2,0.9l-0.5,0.3l-0.6,0.5h-2.3l-0.9,0.4l-0.8,0.5l-0.8,0.6l-1.4,0.5l-0.9,0.6l-0.7,0.6
	l-0.5,0.2l-0.9-0.5l-0.7-0.1l-1-0.5l-1.5-0.2l-1-0.5h-1.2l-0.3-0.5l0.2-0.4l0.2-0.5l-0.5-0.7l-1.2-0.5l-0.9-0.2l-0.9,0.9l-0.6,0.5
	l-1.2,0.2l-0.6-0.5l-0.9-0.5l-1.3-0.5l-1.1-0.2l-1.1-0.3l-0.9-0.7l-0.8-1l-0.8-0.9l0.9-1.8l1.6-0.7l1.4-0.9l2-0.9l2-0.9l2-0.4l2-0.5
	h2.5h1.3l2.3-0.3l1.6,0.5l1.5,1l1.3,1.3l1.4,1.3l0.6,0.6l1.1,1.2l1.2,1.5L382.8,363.5L382.8,363.5z M333.7,354.7l-0.7,0.4l-1.2-0.1
	l-1.3,0l0-0.6l0.6-0.3l0.4-0.5l0.4-0.2l0.7,0.1l0.2,0.2l0.5,0.5L333.7,354.7L333.7,354.7z M184.8,311.9l0.7,2.8l0.2,5.1l0.8,0.6
	l1.1,1.5l1.8,1.9l2.3,2.7l2,0.9l1.5,0.6l5.9,0.4l3,0.3l2.5,1.4l2.5,1.6l1.4,2.7l0.2,2.8l-0.5,1.1l-2.3,1.9l-2.7,2.3l-2.5,1.8
	l-1.5,0.8l-2.9,0.3l-2.3-0.6l-1.3-1l-2.3-1.2l-3.7-1.8l-2.5-0.7l-2.4-0.3l-1.5,0.2L181,341l-1.7,1.1l-1.9,1.5l-1.6,1.6l-0.3,1.7
	l1.4,1.5l2.2,0.4l1.2,0.5h1.5l0.6-0.8l0.9-0.2l-0.2,1.2l-0.5,0.8l0.9,0.5l0.1,1.2l-0.5,0.6l-0.7,1.2l-1.8,1.7l-1.7,1.3l-0.5,1.1
	l-2.5,0.3l-2.1-1.3l-1.7-1.6l-1.7-0.1l-0.7-1.1l-1.6-1.2l-4.8-2.6l-3.5-1.5l-0.1-3.8l-0.8-1l-1.1,0.5l-1,0.4l-0.6,1.4l-1-0.1
	l-1.5-0.4l-1.3-0.2l-0.7,0.5l-1.1,1.1l-0.8,1.6l-0.2,1.5l0.7,0.4l2.2,1l3.2,1.9l3,2.1l3.8,1.9l2.3,1.4l1.6,1.1l0.4,0.9l-0.8,0.8
	l-1.2,0.3l-2.3,1.1l-1.8,0.8l-1.6,1l-2.1,0l-2.2,1.3l-3.6,3l-4,2.9l-5.5,3.1l-3.2,2.4l-1.5,0.1l-0.5-2l-1.8-3.9l-1.8-4.7l-1.5-3.3
	l-0.8-2.4l-1.8-3.6h-1.3l-1.1,0.5l-2.1,1.5l-1.8,1.2l-1.8,1.3l0.3,1.3l1,3.3l1.6,4.2l2,6.1l1.7,4.8l-0.1,1.7l-0.9,0.9l-2.1,1.4
	l-2.3,1.6l-1.5,0.5l-0.1-1.5l-2.4-5.7l-2.9-7.6l-2.1-5.5l-1-0.5l-0.7,0.5l-3,2.2l-2.3,1.8l-1,1.2l0.1,2.6l3.9,10l2.1,7.1l-0.1,1.6
	l-0.7,0.6l-3.6,1.5l-4.2,1.9l-3.9,0.8l-3.5,0.4l-3.6-1.4l-2.9-1.8l-2.4-2.7l-2.5-3.2l-0.9-1.5l-0.6-1l-2.6-3.9l-3.1-5.3l-2.4-4.4
	l-2.1-4.6l-1.6-3.8l-0.7-2.5l-0.5-1.2l-1.3-3.2l-1-3.6l-0.7-2.9l-0.4-2.1l1-1.5l1.1-2.1l2.5-2.1l2.6-2.3l3.1-2.4l4-3.4l2.9-2.8
	l2.3-2.7l2.7-1.9l2.5-1.9l4.2-2.5l4.8-3.8l2.5-1.9l2.9-1.8l2.3-1.8l2.3-1.4l2.5-1.7l2.1-1.7l3.1-0.9l2.8-0.4l1-0.6l1.2,0.2l0.7,0.6
	l3.1,0.1l1.1-0.8l0.4-1.7l1.3-1l2.3-0.3h2l0.9,0.6l-0.3,2.1l-1.4,0.9l-0.9,0.6l-1.8,1.6l-2.7,2.1l-1.3,1.2l-1.1,2l-0.4,2.1l-0.5,0.7
	l-1.5,1.7l-1.6,2.4l-2.5,2.7l-2.4,2.2l-1.9,1.7l0.1,1.8l0.5,0.6l1.4,1.5l2.1,1.7l1.8,1.1l0.5-0.9l1.4-0.9l1.8-1.1l1.3-1l1.1-1.2
	l0.7-0.6l0.6,0.3l0.5,0.7l1.3,0.6l0.8-0.6l0.9-0.8h1.2l1.2-0.2l0.5-1.5l-1-1.2l-0.2-1.4l0.2-1.5l0.9-1.8l1.4-1.8l2-2l1.6-1.2l1-1
	l1.3-0.3l0.8,0.3l0.7,0.7l1.3-0.2l1.1-1.1l0.4-1l-0.1-1l-0.6-0.8l-0.1-1.3l0.4-0.5l0.5,0.6l0.5,0.5l0.9,0.5h1.4l0.9-1.4l1-1.2
	l-0.6-1.3l-1.2-1l-0.9-0.4v-0.9l0.6-0.7l1.5-0.9l1.9-1.2l1.9-1l1.5-0.2l2-0.1l2.4-1.1l2.1-0.4l2.8-0.6l3.8-0.6l3.2,0.4l2.6,0.6
	l2.1,0.9l2.6,1l2,1.9l1.6,1.3l1.6,1.5l0.9,1L184.8,311.9L184.8,311.9z M136.9,291.6h-2.2l-1.2-0.7l-0.4-1v-1.5l-0.2-1.9l-0.4-1.2
	l-0.4-1.5l-0.4-1l-0.1-1.1l0.2-1l1-0.1l1,0.2l0.7,0.8l0.7,1l1.8,1.9l0.7,1.1l0.4,0.8l-0.1,1l-0.1,0.9l-0.1,2.7L136.9,291.6
	L136.9,291.6z M178.1,39.2l1.5,0.8l1.7-0.5l3.1-0.6l1.7-1.5l2.3-0.9l1.5,0.2l1.3,0l0.6,1.6l-0.1,1.2l1,0.6l1.6,0.6l0.8,0.9l0.2,1.3
	l0.6,1.4l1.2,1l1.7,0.5l1.7,0.5l1.2,1.3l1.1,0.6l-0.1,1.3l-1.4,1.2l-0.2,2.1l1.4,1.3l2.4,0.1l1.6-0.1l7.8-0.4l1.8-1.1l0.4-0.1
	l1.7,0.7l2.5,0.8l2.6,1.7l1.3,1.8l1.3,0.2l0.9-0.1l2.4-0.2l1.4,0.1l0.9-1l0.9-0.7l1.3-0.1l2.1-0.5l0.9,0.1l0.8,0.3l0.9-0.1l0.8,0.1
	l0.7,0l0.6-0.2l1.3-0.3h1l0.4,0.2l0.4,2.9l1.5,4.8l0.4,6.1l-2.3,3.6l-4.4,5.1l-5.5,5.3l-0.8,8.6v5.3l0.6,7.6l-2.3,3.2l-2.7,5.5
	l0.9,5.5l1.3,8.6l3,6.3l4.2,6.3l3.6,3.8l1.9,4.8l1.7,5.3l2.5,6.1l1.3,5.7l2.9,5.3l2.3,3.6l0.6,5.3l0.6,9.1l0.8,5.7l4,5.5l5.5,6.1
	l4.2,5.1l2.9,1.3l2.7,1.5l2.3,2.3l0.6,4.4l-2.1,2.3l-4,0.6h-4.4l-0.6,4.4l-3.2,0.8l-2.7,1.9l-3,2.3l-3.2,0.9h-4.2l-3.8-0.8v6.1
	l0.6,2.1l1.9,2.9l2.1,2.3l4.9,4l6.3,4l4.2,4.8l5.3,4.2l4.4,2.5h5.7l2.1,2.3l4.2,3l4.4,2.7l5.1,2.9l4.8,0.9l1,3.4l-0.6,3.4l-1.9,3.4
	l-1.3,3l1.5,4l2.7,1.9l1.3,3.4l0.8,3.4l0.8,4.9l0.8,5.5l1.7,3.2l4.2,3.6l4.2,1.3l2.3-1.5l4.2,0.2l2.9,1.1l4,0.2l4.6-0.2l1.5,2.3
	l0.4,3.4l-3,2.7l-1.9,1.9l-2.3,3.2l-0.8,3l1,3l1.7,3.2l2.5,2.1l1.1,0.6l-1.3,2.1l-2.7-0.1l-1.2,0.5l-0.5,0.9l-0.9,0.8l-1.5-0.1
	l-1.4-0.2l-1.2-1.2l-1.6-1.2l-4.4-4.4l-1.5-0.1l0.1,1.7l4.6,4.4l0.1,1.8l-0.6,0.5l-0.8,0.5l-1.5,0l-0.9-0.5l-1.1-1.2l-1-1.2
	l-0.8-0.4l-0.4-1.5l-1.2-1.2l-1.4-1l-0.4-1.1l-1-0.7l-1.4-0.2l-0.8-0.7l-0.2-0.9l-0.5-1.2l-0.7-0.8l-1.4-0.7h-1.6l-0.8-0.5l-0.4-0.5
	l-1.3-0.1l-0.4,0.7l-0.5,0.6l-0.4,0.5h-1.1l-0.8-0.6l-1.8-0.9l-2.1-1.2l-1.2-0.4l-1.5-1.3l-3.2-1.8l-2.7-1.4l-3.8-2.2l-3.7-2.3
	l-2.7-1.4l-0.7-0.2l-0.2,0.4l-2.6,4.3l-2.7,4.6l-3.4,5.2l-2.2,4.2l-3.1,5.4l-1,0l-7.2-4.6l-6.7-4.5l-10.8-6.9l-8-5.1l-2.1-1.6
	l-1.3-1.1l-2.6-1l-1.8-1.1l-1-0.7l0.4-1l1.5-2.1l5.4-8.9l0.8-1.1l2.3-0.4l2,0.3l2,1l7.1,5l0,0.7l-0.5,0.1l0.1,1.8l0.8,0.7l1.1,0.6
	l1.7,1l2.4,0l0.8-0.3l0.9-0.8l0.6-1.1l0.9-0.2l1,0.4v3.4l2,1.5l1,0.5l1.6-0.1l0.6-0.7l1.1,0l1.1,0.7l0.9,0.3l1.8,0l1.1-2.5l1.1-2.3
	l0.7-1.1l0.2-1.2l-10.7-6.8l-7.2-4.8l1.9-3.5l0.4-2.7l0.3-1.8l-0.4-0.4l-1.2-0.7l-1-0.3l-1.2-1.2l-1.1-1.7l-2.4-3l-1.9-1.4l-0.1-2.4
	l-1.3-1.8l-1.3-2.5l-0.5-2.7l-1.1-2.4l-1-0.7l-1.2-1.3l-1.4-1.4l-1.8-1.1l-1.6-0.5l-2.7-0.3h-2.6l-2,0.1l-2.4-0.1l-1.9,0.5l0.1,0.9
	l0.5,0.7l2.2,0.6l1.4-0.4l3.8,0.3l2,0.8l1.8,0.4l0.4,1.1l2.4,1.6l0.5,1.2l-0.6,1l0.1,1.4l1,0.5l-0.1,0.5l-0.2,1.2l1.8,0.8l0.8,2
	l0.7,2.3l1.3,2.1l0.2,1.9l-4.1,0.1l-3.4,0.5l-4.7,0.1l-4.8-1.3l-5.2-1.5l-4.5-0.8l-5.6-1.2l-4.3-1.2l-4.1-1.4l-2.4-0.9l-2.9-0.1
	l-0.5,0.7H188l-0.7,0.8l-0.5,0.5v-1.7l0.8-6.3l0.6-6.5l0.4-2.7l0.6-4l1.2-2.4l3.1-2.9l2.4-3.3l0.5-1.7l-0.9-0.6l-1.3-0.1l-1.8,0.1
	L191,258l-0.7,1.7l-1.7,3.3l-3.2,2.8l-0.7,1l-0.6,2.6l-0.6,4.3l-0.5,2l-0.1,2.6l-0.1,1l-0.5,1l0,3.4l-0.3,1.5l-0.5,1.4l-0.2,0.7
	l-2.3-1.4l-3.1-2.1l-3.5-3.1l-3.4-2.7l-2.2-1.6l-2.4-0.2l-1.9-0.3l-1.9-0.1l-2.3,0.1l-1,1.5l-1.1,0.5l-2.2,0.2l-0.6,1.1l-0.2,2
	l-0.6,1.6l-0.2,3.2l0,0.4l0,0.2l-1,1h-6.5l-0.1-2.8l-1.1-1.2l-2.3-0.4l-1.7-1.2l-1.9-1.7l-1-1.6l-1-0.9l-3.1-0.5l-1.1,0.8l-1.4,0.5
	l-1.2,1.5l-0.5,1.9l-0.5,1.6l0.1,1.4l0.2,1.5l0.8,0.9l-0.1,3.2l-2,0.2l-1.5,0.4l-3.2,0.7l-2.3,0l-2.3,0.7l-4.2-0.1l-0.5-5.1
	l-0.9-4.1l-0.2-3.6l-0.4-2.5l-0.9-0.9l-0.5-0.8l-1-1l-1.3,0.5l-0.5,1.4l-0.8,1v2.5l0.5,2.5l0.2,4.8l0.6,8l-1.2,0.8l-1.5,0.3
	l-0.8,0.5l-1.6-0.3l-7.7-8.5l-0.5-4.4l-0.8-3.5l-3-0.1l-3.7,0.8l-0.8,1L86,286l0.8,5.5l7,7.7v1.1l-2.7,2.3l-2,1.9l-4,3.1l-3.1,3
	l-2.1-2.6l-1.4-1.8l-1.2-0.2l-1.8,1.4l-3.5,3.1l-0.8-1.8l-3-3.6l-1.1-0.7l-2.2-2.3l-1.4-2l-1.1-1.2l-0.3-1.3l1.3-1l0.8-1l0.1-1
	l-0.4-1.1l-1.6-1.8l-1.3-1.9h-1.6l-0.8,0.8l-1.3,0.8l-0.8-0.1l-1.8-1.2l-0.6-1.1l1.2-0.5l4-4.4l3.4-4.2l2.5-2.3l1.1-1.1l1-1.3
	l0.3-2.3l-1.2-1l-1.3-0.3l-1.3,0.2l-1.1,0.4l-1.6,1.5l-1.8,1.7l-1.8,2.4l-1.4,1l-1.2,1.5l-0.7,0.8l-0.7,0.6h-1l-1.2-1.1l-1.2-1.4
	l-1.3-1.1l-0.2-1.3l0.8-1.7l0.9-0.9l1.8-1.5l1.9-2l2.9-3.7l0.2-1.2l-1.1-1.2l-1.4-1.5l-1.6-0.7l-1.9,1.4l-2.3,2.2l-3.2,3l-3.3,3.5
	l-1.6-1.4l-1.8-1.7l-1.8-1.1l-1.5-1.7l-2.1-1.4l-6.5,5.6l-0.9,0.9l1.4,1.1l5.1,4.5l0.3,1.1l8.6,15.6l0.4,2.4l6.4,11.3l3.4,6.5
	l2.4,4.6l0.8,1.6l0.2,2.4l-0.8,1.6l-1.8,0.7l-3.1,0.5l-14.2,0.2l-13.5-0.2l-6.5-0.4l-5-1.8l-4.6-3l-3.1-2.8l-1.8-3.6l-0.4-4
	l-0.2-4.1l0.4-6.1l1-3.1l0.1-0.9l1.2-2.5l1-3.2l1-3.4l1.5-3.5l1.3-3.6l1.4-4l1.3-4.1l1.3-2.9l0.8-3l7.6-20.1l3.3-9.1l2.8-6.6
	l0.2-2.1l2-4.9l1-3.7l1.3-3.3l-0.5-2l-0.8-3.1l0.3-2.7l1.1-1.5l1.3-0.9l2-1.6l1.4,0.1l0.5-2.4l1.4-2.9l1-3.1l0.4-0.8l0.5-1l1.4-0.9
	l1.2-1.2l1.8-3.1l1.2-2l1.2-2.2l1.2-2.2l1.6-2.8l1.1-2.5l1.6-3.2l1.2-1.7l0.2-1.2l0.9-1.1l1,0.1h1.1l0.1-1.1l1.9-0.7l1.1-0.5L60,167
	v-1.2l0.8-0.8l0.6-2.6l1-1.4l0.5-1.9l1.1-1.8l2.9-5.4l0.2-1.1l0.1-2l0.7-1l0.7-0.7l1.1-0.3l1.2-0.2l0.7-0.7l0.1-1.2l0.8-1.1l0.2-1
	l1.4-0.2l0.8-1.5l-0.2-1l0.2-1.9l0.5-0.9l-0.1-1l0.1-8.8l0.5-1l0.2-2.1l0.5-0.1V123l0.4-1.3l0.2-1.5l0.2-1.3l0.3-0.2l-0.1-1.9
	l-0.5-0.6l-0.4-1.2l0.1-1.7l0.8-0.4l1.4-0.3l1.1-1.8l0.7-0.3l0.2-1.2l-0.1-1.6l-0.4-0.9l0.2-1l2.3-0.2l1.1-0.2l0.4,1.4l-1.1,0.3
	l-0.3,1.8l0.5,1l1.8-0.1l0.9-1.1l0.1-1l0.1-0.8l1.2,0l0.7,0.8l1.1-0.4l0.8-0.7l0.8-0.9l0.1-0.6l-0.3-1.1l-0.5-1.3l-0.4-1.3l-0.8-0.4
	l0.2-0.8l0.9-0.3l3.5-0.3L93.5,98l-0.8-0.2l-0.8-0.6l0.1-1.3l-0.1-1l0.1-1l0-0.8l1.5-0.1l0.6-1l0.5-0.6L94,90.6l-0.8-0.6l0.4-0.5
	l0.7,0.1l0.6,0.4l1.8-0.2l0.2-1.8l0.7-2.2L96.7,85l-1.4,0.8v-2.1l0.8-0.5l0-2l0.3-1.1l0.8-0.7l1.7-0.2l0.7-0.8l0.7-0.9l0.4-0.9
	l0.1-1.1l0.8-0.5l0.8-0.9l0.9,0.1l0.9,0.8l1.7-0.6l0.9-0.2l1.3-1l0.9-1.5l0.8-1.2l1.4-0.6l0.9-0.2l0.8,0.2l1.3,0.7l2.1,0.5v-2.6
	l1.7-0.2l0.9,0.7l1.7,0.1l0.6-1.8l0.5-1l1.2-0.3l1.1,0.4l1.7-0.7h1.8l1.6-1l2.6-1.2l2.2-1.9l2.5-2l3.6-3l1.7-2.3l2.2-1l2.2-0.3
	l1-2.2l1.5-0.4l-0.1-2.2l1.2-1.7l3.4-2.3l2.8-1.5l2.9-2.4l2.7-2l2.4-0.6l3-0.4l3.9-1.1l2.2-1l4.1-0.2l1,0.8l-0.1,2L178.1,39.2
	L178.1,39.2z"/>
</svg>
